<?xml version="1.0" encoding="UTF-8"?>
<svg width="166px" height="36px" viewBox="0 0 166 36" version="1.1" xmlns="http://www.w3.org/2000/svg" xmlns:xlink="http://www.w3.org/1999/xlink">
    <!-- Generator: Sketch 47.1 (45422) - http://www.bohemiancoding.com/sketch -->
    <title>logo-device-2</title>
    <desc>Created with Sketch.</desc>
    <defs></defs>
    <g id="Page-1" stroke="none" stroke-width="1" fill="none" fill-rule="evenodd">
        <g id="logo-device-2" fill="#000000">
            <path d="M13.72,0.686 C23.177,0.686 30.38,8.134 30.38,17.836 C30.38,27.538 23.177,34.986 13.72,34.986 L0,34.986 L0,0.686 L13.72,0.686 Z M13.72,27.44 C19.11,27.44 22.834,23.716 22.834,17.836 C22.834,11.956 19.11,8.232 13.72,8.232 L7.84,8.232 L7.84,27.44 L13.72,27.44 Z M42.83,27.44 L42.83,21.364 L55.08,21.364 L55.08,13.916 L42.83,13.916 L42.83,8.232 L56.305,8.232 L56.305,0.686 L34.99,0.686 L34.99,34.986 L56.55,34.986 L56.55,27.44 L42.83,27.44 Z M69.392,34.986 L79.388,34.986 L90.56,0.686 L81.985,0.686 L74.39,25.921 L66.795,0.686 L58.22,0.686 L69.392,34.986 Z M93.7,0.686 L93.7,34.986 L101.54,34.986 L101.54,0.686 L93.7,0.686 Z M123.986,35.672 C130.258,35.672 135.746,32.585 138.686,27.734 L131.924,23.814 C130.454,26.46 127.465,28.028 123.986,28.028 C117.91,28.028 113.99,23.961 113.99,17.836 C113.99,11.711 117.91,7.644 123.986,7.644 C127.465,7.644 130.405,9.212 131.924,11.858 L138.686,7.938 C135.697,3.087 130.209,0 123.986,0 C113.647,0 106.15,7.742 106.15,17.836 C106.15,27.93 113.647,35.672 123.986,35.672 Z M150.891,27.44 L150.891,21.364 L163.141,21.364 L163.141,13.916 L150.891,13.916 L150.891,8.232 L164.366,8.232 L164.366,0.686 L143.051,0.686 L143.051,34.986 L164.611,34.986 L164.611,27.44 L150.891,27.44 Z" id="DEVICE"></path>
        </g>
    </g>
</svg>